<svg xmlns="http://www.w3.org/2000/svg" id="Grupo_506" width="270.313" height="31.539" data-name="Grupo 506" viewBox="0 0 270.313 31.539">
    <defs>
        <style>
            .cls-1{fill:#fff}
        </style>
    </defs>
    <path id="Trazado_25" d="M22.055 15.041A7.978 7.978 0 0 0 24.969 8.7 8.413 8.413 0 0 0 16.57.3H2v31.368h14.57a9.145 9.145 0 0 0 9.085-9.085 8.962 8.962 0 0 0-3.6-7.542zm-1.029-6.513a4.609 4.609 0 0 1-4.626 4.628H5.942V4.071H16.57a4.426 4.426 0 0 1 4.456 4.457zM16.57 27.554H5.942V17.1H16.57a5.34 5.34 0 0 1 5.314 5.314 5.427 5.427 0 0 1-5.314 5.14z" class="cls-1" data-name="Trazado 25" transform="translate(-2 -.129)"/>
    <path id="Trazado_26" d="M33.541 4.142V.2H21.2v31.368h12.341v-3.943h-8.4V17.17h6.171v-3.943h-6.17V4.142z" class="cls-1" data-name="Trazado 26" transform="translate(11.711 -.2)"/>
    <path id="Trazado_27" d="M48 31.568V.2h-3.944v19.2L37.542.2H33.6v31.368h3.942V12.541l6.514 19.026z" class="cls-1" data-name="Trazado 27" transform="translate(20.565 -.2)"/>
    <path id="Trazado_28" d="M144.285.2v19.2L137.942.2H134v31.368h3.942V12.541l6.342 19.026h3.942V.2z" class="cls-1" data-name="Trazado 28" transform="translate(92.26 -.2)"/>
    <path id="Trazado_29" d="M101.67 4.142V.2H89.5v31.368h3.771V17.17h6.342v-3.943h-6.342V4.142z" class="cls-1" data-name="Trazado 29" transform="translate(60.483 -.2)"/>
    <path id="Trazado_30" d="M124.483 31.5l-5.142-15.084a8.544 8.544 0 0 0 4.971-7.716 8.413 8.413 0 0 0-8.4-8.4H101v31.368h3.942V17.27H115.4l4.8 14.4h4.285zm-8.742-18.341h-10.8V4.071h10.8a4.609 4.609 0 0 1 4.628 4.629 4.691 4.691 0 0 1-4.628 4.456z" class="cls-1" data-name="Trazado 30" transform="translate(68.695 -.129)"/>
    <path id="Trazado_31" d="M125.256.2L118.4 31.4h3.942l1.543-7.028h7.028l1.543 7.028h3.944L129.542.2h-4.285zm-.514 20.4l2.571-12 2.571 12z" class="cls-1" data-name="Trazado 31" transform="translate(81.12 -.2)"/>
    <path id="Trazado_32" d="M167.127 31.568L158.9 14.084 165.412.2h-4.285l-7.885 16.627V.2H149.3v31.368h3.942v-5.657l3.428-7.371 6.171 13.027z" class="cls-1" data-name="Trazado 32" transform="translate(103.186 -.2)"/>
    <path id="Trazado_33" d="M74.3 28.654a8.572 8.572 0 0 0 6 2.743h.514v-3.943c-3.6 0-3.942-2.914-3.942-5.142V17h3.942v-3.773H76.87V.2h-7.885a8.413 8.413 0 0 0-8.4 8.4 8.919 8.919 0 0 0 2.915 6.513 9.171 9.171 0 0 0 5.485 16.455h.515a9.342 9.342 0 0 0 6-2.743m-2.4-15.6h-3.944a4.628 4.628 0 1 1 0-9.256H73.1zm0 3.942zm-9.256 5.142A5.34 5.34 0 0 1 69.156 17H73.1v5.314c0 2.228-.343 5.142-3.942 5.142a5.091 5.091 0 0 1-5.316-5.144z" class="cls-1" data-name="Trazado 33" transform="translate(39.346 -.2)"/>
</svg>
