<svg xmlns="http://www.w3.org/2000/svg" width="21.025" height="17.078" viewBox="0 0 21.025 17.078">
    <path d="M0 15.1a12.449 12.449 0 0 0 6.608 1.974A12.233 12.233 0 0 0 18.88 4.291a8.842 8.842 0 0 0 2.145-2.231 8.249 8.249 0 0 1-2.489.687 4.439 4.439 0 0 0 1.888-2.4 7.583 7.583 0 0 1-2.746 1.03A4.2 4.2 0 0 0 14.5 0a4.353 4.353 0 0 0-4.2 5.321A12.369 12.369 0 0 1 1.375.858a4.274 4.274 0 0 0 1.373 5.75 5.173 5.173 0 0 1-1.974-.515 4.306 4.306 0 0 0 3.433 4.291 5.031 5.031 0 0 1-1.974.086 4.36 4.36 0 0 0 4.033 3A8.79 8.79 0 0 1 0 15.1" data-name="Trazado 874"/>
</svg>
