<svg id="Capa_1" data-name="Capa 1" xmlns="http://www.w3.org/2000/svg" viewBox="0 0 64 32.42"><defs><style>.cls-1{opacity:0.6;}.cls-2{fill:#010101;}</style></defs><title>pestanita</title><g class="cls-1"><path class="cls-2" d="M24.38,1,32,9.14,39.62,1H64c0-.19,0-.37,0-.56,0-.56-64-.56-64,0C0,.61,0,.79,0,1Z" transform="translate(0 0)"/><path class="cls-2" d="M40.1,2.11,32,10.79,23.9,2.11H0C.88,19.76,14.87,32.42,32,32.42A32,32,0,0,0,64,2.11ZM32,19.77l-8.27-8.86.82-.77,7.45,8,7.45-8,.82.77Z" transform="translate(0 0)"/></g></svg>