<svg id="Capa_1" data-name="Capa 1" xmlns="http://www.w3.org/2000/svg" viewBox="0 0 62.13 63.88"><defs><style>.cls-1{fill:#fff;}</style></defs><title>baños</title><path class="cls-1" d="M55.32,37.68H45.67c-4.32,0-7.84-2.76-7.84-6.14V6.26c0-3.39,3.52-6.14,7.84-6.14h9.64c4.32,0,7.84,2.76,7.84,6.14V31.54a1.23,1.23,0,0,1-2.38,0V6.26C60.78,3.9,58.33,2,55.32,2H45.67c-3,0-5.46,1.92-5.46,4.28V31.54c0,2.36,2.45,4.28,5.46,4.28h9.64a1,1,0,1,1,0,1.86Z" transform="translate(-1.03 -0.12)"/><path class="cls-1" d="M22.28,62.61a1.51,1.51,0,0,1-.3,0c-.64-.13-1-.64-.85-1.14l4.36-13.09C11.68,45.35,1,37.63,1,30.5a1.08,1.08,0,0,1,1.19-.93H38.91a1,1,0,1,1,0,1.86H3.48c1,6.17,11.24,12.91,23.74,15.35a1.2,1.2,0,0,1,.73.43.76.76,0,0,1,.13.71l-4.66,14A1.18,1.18,0,0,1,22.28,62.61Z" transform="translate(-1.03 -0.12)"/><path class="cls-1" d="M46.23,62.61A1.08,1.08,0,0,1,45,61.68v-14a1,1,0,0,1,.83-.89c9.06-2.26,14.91-8.65,14.91-16.28a1.23,1.23,0,0,1,2.38,0c0,8.23-6.15,15.16-15.74,17.84V61.68A1.08,1.08,0,0,1,46.23,62.61Z" transform="translate(-1.03 -0.12)"/><path class="cls-1" d="M60.41,64H17a1,1,0,1,1,0-1.86H60.41a1,1,0,1,1,0,1.86Z" transform="translate(-1.03 -0.12)"/></svg>