<svg id="Capa_1" data-name="Capa 1" xmlns="http://www.w3.org/2000/svg" viewBox="0 0 64 58.58"><defs><style>.cls-1{fill:#ffffff;}</style></defs><title>baño</title><path class="cls-1" d="M52.56,64a2.58,2.58,0,1,0-1.68-4.52,4.37,4.37,0,0,1-3.09-2.69q-.93,0-1.89,0H44.41c1.1,2.63,3,5.17,5.85,5.73A2.57,2.57,0,0,0,52.56,64Z" transform="translate(0 -5.42)"/><path class="cls-1" d="M12.42,62.44c2.92-.74,4.58-3.14,5.48-5.61H16.78a14.5,14.5,0,0,1-2.44-.22,5.18,5.18,0,0,1-2.77,2.74,2.55,2.55,0,0,0-1.52-.5,2.58,2.58,0,1,0,2.37,3.6Z" transform="translate(0 -5.42)"/><path class="cls-1" d="M17.35,19.62l7-7a17.83,17.83,0,0,0-4.82-3.08l-5.27,5.27A17.67,17.67,0,0,0,17.35,19.62Z" transform="translate(0 -5.42)"/><path class="cls-1" d="M24.66,16.61a.53.53,0,0,0,0-.74l-.74-.74a.53.53,0,0,0-.16-.11.52.52,0,0,0-.69.69.51.51,0,0,0,.1.16l.74.74a.53.53,0,0,0,.74,0Z" transform="translate(0 -5.42)"/><path class="cls-1" d="M26.88,18.84a.53.53,0,0,0,0-.74l-.74-.74a.52.52,0,0,0-.74.74l.74.74a.53.53,0,0,0,.37.15A.52.52,0,0,0,26.88,18.84Z" transform="translate(0 -5.42)"/><path class="cls-1" d="M29.11,21.07a.52.52,0,0,0,0-.74l-.74-.74a.52.52,0,1,0-.74.74l.74.74a.53.53,0,0,0,.74,0Z" transform="translate(0 -5.42)"/><path class="cls-1" d="M21.69,17.35l.74.74a.52.52,0,0,0,.74-.74l-.74-.74a.53.53,0,0,0-.16-.11.52.52,0,0,0-.69.69A.51.51,0,0,0,21.69,17.35Z" transform="translate(0 -5.42)"/><path class="cls-1" d="M23.91,19.58l.74.74a.52.52,0,1,0,.74-.74l-.74-.74a.52.52,0,0,0-.74.74Z" transform="translate(0 -5.42)"/><path class="cls-1" d="M26.14,21.81l.74.74a.52.52,0,0,0,.74-.74l-.74-.74a.52.52,0,0,0-.74.74Z" transform="translate(0 -5.42)"/><path class="cls-1" d="M21.69,19.58a.52.52,0,0,0,0-.74l-.74-.74a.52.52,0,0,0-.85.58.51.51,0,0,0,.11.16l.74.74a.53.53,0,0,0,.37.15A.52.52,0,0,0,21.69,19.58Z" transform="translate(0 -5.42)"/><path class="cls-1" d="M23.91,21.81a.52.52,0,0,0,0-.74l-.74-.74a.52.52,0,0,0-.74.74l.74.74a.53.53,0,0,0,.74,0Z" transform="translate(0 -5.42)"/><path class="cls-1" d="M26.14,24a.53.53,0,0,0,0-.74l-.74-.74a.52.52,0,0,0-.74.74l.74.74a.53.53,0,0,0,.74,0Z" transform="translate(0 -5.42)"/><path class="cls-1" d="M0,32.7v2.1a2.09,2.09,0,0,0,1.93,2.08l.16,0H3L5.4,47.31c2,6,6.15,7.85,9.37,8.33h0a13.78,13.78,0,0,0,2,.15H45.9l1.45,0c4.93-.16,9.09-1.39,11.15-9l1.47-7c.26-1.08.47-2,.63-2.82H61.9a2.1,2.1,0,0,0,2.1-2.1V32.7a2.1,2.1,0,0,0-2.1-2.1H7.34V7.52h3.1l3.43,3.16a4.2,4.2,0,0,0,.3,2.42l3.6-3.6a4.18,4.18,0,0,0-2.44-.32L11.56,5.69a1.05,1.05,0,0,0-.71-.28H6.3a1,1,0,0,0-1,1V30.6H2.1A2.1,2.1,0,0,0,0,32.7ZM18.82,52.54v0h0Z" transform="translate(0 -5.42)"/></svg>