<svg id="Capa_1" data-name="Capa 1" xmlns="http://www.w3.org/2000/svg" viewBox="0 0 64 50.93"><defs><style>.cls-1{fill:#ffffff;}</style></defs><title>casa</title><path class="cls-1" d="M32,23.31,9.17,42.13a.54.54,0,0,1,0,.12.54.54,0,0,0,0,.12V61.42A2.58,2.58,0,0,0,11.68,64H26.92V48.72H37.08V64H52.32a2.58,2.58,0,0,0,2.54-2.54V42.37a.56.56,0,0,0,0-.24Z" transform="translate(0 -13.03)"/><path class="cls-1" d="M63.56,37.84l-8.69-7.22V14.42a1.22,1.22,0,0,0-1.27-1.27H46a1.22,1.22,0,0,0-1.27,1.27v7.74L35,14.06a4.92,4.92,0,0,0-6,0L.44,37.84A1.15,1.15,0,0,0,0,38.7a1.29,1.29,0,0,0,.28.93l2.46,2.94a1.35,1.35,0,0,0,.83.44,1.48,1.48,0,0,0,1-.28L32,19.82,59.47,42.73a1.22,1.22,0,0,0,.83.28h.12a1.36,1.36,0,0,0,.83-.44l2.46-2.94A1.28,1.28,0,0,0,64,38.7,1.16,1.16,0,0,0,63.56,37.84Z" transform="translate(0 -13.03)"/></svg>