<svg id="Capa_1" data-name="Capa 1" xmlns="http://www.w3.org/2000/svg" viewBox="0 0 64 54.38"><defs><style>.cls-1{fill:#fff;}</style></defs><title>construccion</title><path class="cls-1" d="M47.79,59.17H16.2A6.37,6.37,0,0,1,9.84,52.8V26.73L.91,26.62a.92.92,0,0,1-.5-1.69c.07,0,7.52-5.06,15-10C30.88,4.78,31.53,4.78,32,4.78s.89,0,9.39,5.48V7.56a.92.92,0,0,1,.92-.92h8.76a.92.92,0,0,1,.92.92V17.2c6.19,4.1,11.55,7.7,11.6,7.74a.92.92,0,0,1-.5,1.69l-8.93.11v5.13a.92.92,0,1,1-1.84,0v-6a.92.92,0,0,1,.91-.92l6.87-.08c-2.23-1.5-5.75-3.85-9.54-6.35a.92.92,0,0,1-.41-.77V8.49H43.23V12a.92.92,0,0,1-1.42.77C34.64,8.08,32.58,6.94,32,6.67c-2.25,1-17.37,11-28.1,18.15l6.88.08a.92.92,0,0,1,.91.92v27a4.53,4.53,0,0,0,4.52,4.53H47.79a4.53,4.53,0,0,0,4.53-4.53V49.37a.92.92,0,1,1,1.84,0V52.8A6.38,6.38,0,0,1,47.79,59.17Z" transform="translate(0 -4.78)"/><path class="cls-1" d="M57.52,49.25h-39a3.64,3.64,0,0,1-2.24-.74,2.61,2.61,0,0,1-1-2V34.08a2.61,2.61,0,0,1,1-2,3.64,3.64,0,0,1,2.24-.74h39a3.07,3.07,0,0,1,3.29,2.78V46.47A3.07,3.07,0,0,1,57.52,49.25ZM29.26,33.14H18.56a1.82,1.82,0,0,0-1.11.35.8.8,0,0,0-.34.59V46.47a.8.8,0,0,0,.34.59,1.82,1.82,0,0,0,1.11.35h39c.85,0,1.45-.49,1.45-.94V34.08c0-.44-.6-.94-1.45-.94Z" transform="translate(0 -4.78)"/><circle class="cls-1" cx="54.94" cy="35.83" r="1.83"/><path class="cls-1" d="M21.4,38.34a.92.92,0,0,1-.92-.92V32.67a.92.92,0,1,1,1.84,0v4.74A.92.92,0,0,1,21.4,38.34Z" transform="translate(0 -4.78)"/><path class="cls-1" d="M46.34,38.34a.92.92,0,0,1-.92-.92V32.67a.92.92,0,1,1,1.84,0v4.74A.92.92,0,0,1,46.34,38.34Z" transform="translate(0 -4.78)"/><path class="cls-1" d="M29.72,38.34a.92.92,0,0,1-.92-.92V32.67a.92.92,0,1,1,1.84,0v4.74A.92.92,0,0,1,29.72,38.34Z" transform="translate(0 -4.78)"/><path class="cls-1" d="M38,38.34a.92.92,0,0,1-.92-.92V32.67a.92.92,0,1,1,1.84,0v4.74A.92.92,0,0,1,38,38.34Z" transform="translate(0 -4.78)"/></svg>