<svg id="Capa_1" data-name="Capa 1" xmlns="http://www.w3.org/2000/svg" viewBox="0 0 64 30.3"><defs><style>.cls-1{fill:#010101;}</style></defs><title>correocontacto</title><path class="cls-1" d="M55.11,47.15H19.35a2.84,2.84,0,0,1-2.87-3.52l4.85-23.54a4.24,4.24,0,0,1,4-3.24H61.06a2.84,2.84,0,0,1,2.87,3.52L59.08,43.91A4.24,4.24,0,0,1,55.11,47.15ZM25.31,18.22a2.85,2.85,0,0,0-2.63,2.15L17.83,43.91a1.47,1.47,0,0,0,1.52,1.87H55.11a2.84,2.84,0,0,0,2.63-2.14h0l4.85-23.54a1.47,1.47,0,0,0-1.52-1.87Z" transform="translate(0 -16.85)"/><path class="cls-1" d="M39.81,35.46A3.84,3.84,0,0,1,37,34.31L23.44,20a.69.69,0,1,1,1-.94L38,33.36a2.53,2.53,0,0,0,3.2.29L61.2,19A.69.69,0,0,1,62,20.07L42,34.76A3.75,3.75,0,0,1,39.81,35.46Z" transform="translate(0 -16.85)"/><path class="cls-1" d="M16.6,22h-9a.69.69,0,1,1,0-1.37h9a.69.69,0,1,1,0,1.37Z" transform="translate(0 -16.85)"/><path class="cls-1" d="M14.77,31.16H.69a.69.69,0,1,1,0-1.37H14.77a.69.69,0,1,1,0,1.37Z" transform="translate(0 -16.85)"/><path class="cls-1" d="M12.48,39.4H5.61a.69.69,0,1,1,0-1.37h6.87a.69.69,0,1,1,0,1.37Z" transform="translate(0 -16.85)"/></svg>