<svg id="Capa_1" data-name="Capa 1" xmlns="http://www.w3.org/2000/svg" viewBox="0 0 63.99 64"><defs><style>.cls-1{fill:#010101;}</style></defs><title>departamentos</title><rect class="cls-1" x="26.77" y="50.59" width="10.52" height="13.41"/><path class="cls-1" d="M0,0V64H23.32V48.66A1.83,1.83,0,0,1,25,46.73H39a1.83,1.83,0,0,1,1.72,1.93V64H64V0ZM15,40.83H7.94V33.78H15Zm0-13.2H7.94V20.58H15Zm0-13.21H7.94V7.32H15ZM28.7,40.83H21.6V33.78h7.06v7.06Zm0-13.2H21.6V20.58h7.06v7.06Zm0-13.21H21.6V7.32h7.06v7.11ZM42.42,40.83H35.32V33.78h7.06v7.06Zm0-13.2H35.32V20.58h7.06v7.06Zm0-13.21H35.32V7.32h7.06v7.11ZM56.09,40.83H49V33.78h7.06Zm0-13.2H49V20.58h7.06Zm0-13.21H49V7.32h7.06Z" transform="translate(-0.01)"/></svg>