<svg id="Capa_1" data-name="Capa 1" xmlns="http://www.w3.org/2000/svg" viewBox="0 0 63.98 45.28"><defs><style>.cls-1{fill:#ffffff;}</style></defs><title>estacionamiento</title><path class="cls-1" d="M63.62,32.73a1.65,1.65,0,0,0-1.27-.6H56.13c-1.54-4.05-3.54-8-5.81-9.52-7.87-5.18-28.75-5.18-36.62,0-2.28,1.5-4.27,5.48-5.82,9.52H1.65a1.64,1.64,0,0,0-1.6,2L1,38.57a1.64,1.64,0,0,0,1.6,1.31H4.42A11.06,11.06,0,0,0,1.76,47.1a10.83,10.83,0,0,0,3.42,8.13l.07.06v6.25A2.46,2.46,0,0,0,7.71,64h5.74a2.46,2.46,0,0,0,2.46-2.46V59H48.09v2.51A2.46,2.46,0,0,0,50.54,64h5.74a2.46,2.46,0,0,0,2.46-2.46V55.41a11.24,11.24,0,0,0,.72-15.54h2A1.63,1.63,0,0,0,63,38.56L64,34.09A1.65,1.65,0,0,0,63.62,32.73Zm-47.23-6c6.27-4.13,24.95-4.13,31.22,0,1.22.8,2.79,4,4.22,8H12.17C13.6,30.74,15.17,27.51,16.39,26.71ZM9,47.72a4.83,4.83,0,1,1,4.83,4.83A4.83,4.83,0,0,1,9,47.72Zm41.15,4.83A4.83,4.83,0,1,1,55,47.72,4.83,4.83,0,0,1,50.19,52.55Z" transform="translate(-0.01 -18.72)"/></svg>