<svg id="Capa_1" data-name="Capa 1" xmlns="http://www.w3.org/2000/svg" viewBox="0 0 612.78 612.78"><defs><style>.cls-1{fill:none;}.cls-1,.cls-3{stroke:#fff;stroke-miterlimit:10;}.cls-2,.cls-3{fill:#fff;}.cls-3{stroke-width:0.5px;}</style></defs><title>logoheaderanap</title><circle class="cls-1" cx="306.39" cy="306.39" r="305.89"/><path class="cls-2" d="M86.13,375.14l-5.57-7.46H75.08v7.46H72.91v-19.2h8.26c4.22,0,6.94,2.28,6.94,5.73,0,3.21-2.19,5.07-5.21,5.62l5.9,7.84ZM81,357.94H75.08v7.79H81c2.88,0,4.94-1.48,4.94-4S84.1,357.94,81,357.94Z" transform="translate(-1.22 -4.33)"/><path class="cls-2" d="M106.58,373.63a5.87,5.87,0,0,0,4.47-2l1.32,1.18a7.31,7.31,0,0,1-5.84,2.66,7.05,7.05,0,0,1-7.08-7.41c0-4.11,2.88-7.41,6.8-7.41,4.2,0,6.61,3.35,6.61,7.52a5.49,5.49,0,0,1,0,.66H101.58A5,5,0,0,0,106.58,373.63Zm4.14-6.36c-.22-2.58-1.7-4.83-4.53-4.83-2.47,0-4.33,2.06-4.61,4.83Z" transform="translate(-1.22 -4.33)"/><path class="cls-2" d="M125.6,363.67l-.63-1.73a11.71,11.71,0,0,1,5.16-1.18c3.87,0,6,2,6,5.7v8.67h-2V373a6.22,6.22,0,0,1-5.13,2.44c-2.63,0-5.29-1.48-5.29-4.44s2.47-4.61,6.06-4.61a15,15,0,0,1,4.36.6v-.49c0-2.55-1.56-3.87-4.22-3.87A9.89,9.89,0,0,0,125.6,363.67Zm.25,7.24c0,1.81,1.65,2.85,3.57,2.85,2.6,0,4.74-1.59,4.74-3.84v-1.37A14.76,14.76,0,0,0,130,368C127.33,368,125.84,369.1,125.84,370.91Z" transform="translate(-1.22 -4.33)"/><path class="cls-2" d="M149.06,375.14v-20h2.11v20Z" transform="translate(-1.22 -4.33)"/><path class="cls-2" d="M195,357.91H183.28v6.55h10.48v2H183.28v6.72h11.85v2h-14v-19.2H195Z" transform="translate(-1.22 -4.33)"/><path class="cls-2" d="M212,375.41a9.75,9.75,0,0,1-5.87-2.08l1.07-1.51a8.28,8.28,0,0,0,4.91,1.81c1.7,0,2.93-.88,2.93-2.25v-.06c0-1.43-1.67-2-3.54-2.5-2.22-.63-4.69-1.4-4.69-4v-.06c0-2.44,2-4.06,4.83-4.06a9.69,9.69,0,0,1,5.1,1.56l-1,1.59a8,8,0,0,0-4.2-1.37c-1.67,0-2.74.88-2.74,2.06v.06c0,1.34,1.76,1.86,3.65,2.44,2.19.66,4.55,1.51,4.55,4.06v.06C217.08,373.85,214.86,375.41,212,375.41Z" transform="translate(-1.22 -4.33)"/><path class="cls-2" d="M231.79,371.1a2.1,2.1,0,0,0,2.39,2.36,4.45,4.45,0,0,0,2.06-.49v1.81a5.33,5.33,0,0,1-2.55.6c-2.28,0-4-1.12-4-4v-8.56h-2V361h2v-4.28h2.11V361h4.5v1.87h-4.5Z" transform="translate(-1.22 -4.33)"/><path class="cls-2" d="M249.07,363.67l-.63-1.73a11.71,11.71,0,0,1,5.16-1.18c3.87,0,6,2,6,5.7v8.67h-2V373a6.22,6.22,0,0,1-5.13,2.44c-2.63,0-5.29-1.48-5.29-4.44s2.47-4.61,6.06-4.61a15,15,0,0,1,4.36.6v-.49c0-2.55-1.56-3.87-4.22-3.87A9.89,9.89,0,0,0,249.07,363.67Zm.25,7.24c0,1.81,1.65,2.85,3.57,2.85,2.6,0,4.74-1.59,4.74-3.84v-1.37a14.76,14.76,0,0,0-4.17-.6C250.79,368,249.31,369.1,249.31,370.91Z" transform="translate(-1.22 -4.33)"/><path class="cls-2" d="M275.05,371.1a2.1,2.1,0,0,0,2.39,2.36,4.45,4.45,0,0,0,2.06-.49v1.81a5.33,5.33,0,0,1-2.55.6c-2.28,0-4-1.12-4-4v-8.56h-2V361h2v-4.28h2.11V361h4.5v1.87h-4.5Z" transform="translate(-1.22 -4.33)"/><path class="cls-2" d="M297.34,373.63a5.87,5.87,0,0,0,4.47-2l1.32,1.18a7.31,7.31,0,0,1-5.84,2.66,7.05,7.05,0,0,1-7.08-7.41c0-4.11,2.88-7.41,6.8-7.41,4.2,0,6.61,3.35,6.61,7.52a5.49,5.49,0,0,1,0,.66H292.35A5,5,0,0,0,297.34,373.63Zm4.14-6.36c-.22-2.58-1.7-4.83-4.53-4.83-2.47,0-4.33,2.06-4.61,4.83Z" transform="translate(-1.22 -4.33)"/><path class="cls-2" d="M339.18,368.36h-4.66v6.77h-2.17v-19.2h7.19c4.33,0,7.19,2.3,7.19,6.12C346.72,366.22,343.26,368.36,339.18,368.36Zm.19-10.42h-4.86v8.45h4.75c3.18,0,5.27-1.7,5.27-4.25C344.52,359.37,342.47,357.94,339.37,357.94Z" transform="translate(-1.22 -4.33)"/><path class="cls-2" d="M360.64,375.14h-2.11V361h2.11v3.7a6.07,6.07,0,0,1,5.79-4V363h-.17c-3.1,0-5.62,2.22-5.62,6.5Z" transform="translate(-1.22 -4.33)"/><path class="cls-2" d="M383.72,375.47a7.27,7.27,0,0,1-7.35-7.38,7.39,7.39,0,1,1,7.35,7.38Zm0-12.95a5.21,5.21,0,0,0-5.18,5.51,5.33,5.33,0,0,0,5.24,5.54,5.22,5.22,0,0,0,5.21-5.48A5.36,5.36,0,0,0,383.72,362.52Z" transform="translate(-1.22 -4.33)"/><path class="cls-2" d="M410.72,375.44a6.4,6.4,0,0,1-5.43-3v7.1h-2.11V361h2.11v2.85a6.37,6.37,0,0,1,5.43-3.16c3.4,0,6.77,2.69,6.77,7.38S414.15,375.44,410.72,375.44Zm-.38-12.89a5.51,5.51,0,0,0,0,11c2.74,0,5-2,5-5.49S413,362.55,410.34,362.55Z" transform="translate(-1.22 -4.33)"/><path class="cls-2" d="M435.86,373.63a5.87,5.87,0,0,0,4.47-2l1.32,1.18a7.31,7.31,0,0,1-5.84,2.66,7.05,7.05,0,0,1-7.08-7.41c0-4.11,2.88-7.41,6.8-7.41,4.2,0,6.61,3.35,6.61,7.52a5.49,5.49,0,0,1,0,.66H430.87A5,5,0,0,0,435.86,373.63Zm4.14-6.36c-.22-2.58-1.7-4.83-4.53-4.83-2.47,0-4.33,2.06-4.61,4.83Z" transform="translate(-1.22 -4.33)"/><path class="cls-2" d="M456.17,375.14h-2.11V361h2.11v3.7a6.07,6.07,0,0,1,5.79-4V363h-.16c-3.1,0-5.62,2.22-5.62,6.5Z" transform="translate(-1.22 -4.33)"/><path class="cls-2" d="M476.24,371.1a2.1,2.1,0,0,0,2.39,2.36,4.45,4.45,0,0,0,2.06-.49v1.81a5.33,5.33,0,0,1-2.55.6c-2.28,0-4-1.12-4-4v-8.56h-2V361h2v-4.28h2.11V361h4.5v1.87h-4.5Z" transform="translate(-1.22 -4.33)"/><path class="cls-2" d="M492.74,357.86v-2.33h2.41v2.33Zm.14,17.28V361H495v14.18Z" transform="translate(-1.22 -4.33)"/><path class="cls-2" d="M514.37,373.63a5.87,5.87,0,0,0,4.47-2l1.32,1.18a7.31,7.31,0,0,1-5.84,2.66,7.05,7.05,0,0,1-7.08-7.41c0-4.11,2.88-7.41,6.8-7.41,4.2,0,6.61,3.35,6.61,7.52a5.49,5.49,0,0,1,0,.66H509.38A5,5,0,0,0,514.37,373.63Zm4.14-6.36c-.22-2.58-1.7-4.83-4.53-4.83-2.47,0-4.33,2.06-4.61,4.83Z" transform="translate(-1.22 -4.33)"/><path class="cls-2" d="M537.26,375.41a9.75,9.75,0,0,1-5.87-2.08l1.07-1.51a8.28,8.28,0,0,0,4.91,1.81c1.7,0,2.94-.88,2.94-2.25v-.06c0-1.43-1.67-2-3.54-2.5-2.22-.63-4.69-1.4-4.69-4v-.06c0-2.44,2-4.06,4.83-4.06a9.69,9.69,0,0,1,5.1,1.56l-1,1.59a8,8,0,0,0-4.2-1.37c-1.67,0-2.74.88-2.74,2.06v.06c0,1.34,1.76,1.86,3.65,2.44,2.19.66,4.55,1.51,4.55,4.06v.06C542.31,373.85,540.08,375.41,537.26,375.41Z" transform="translate(-1.22 -4.33)"/><path class="cls-2" d="M202.89,403.69a.69.69,0,0,0,0-.45.62.62,0,0,0-.28-.25,1.5,1.5,0,0,0-.47-.13l-.64-.08a.52.52,0,0,1-.23-.11.33.33,0,0,1-.11-.28,1.19,1.19,0,0,1,0-.16q0-.09,0-.21h5.31a7.09,7.09,0,0,1,2,.24,3.85,3.85,0,0,1,1.35.67,2.5,2.5,0,0,1,.75,1,3.14,3.14,0,0,1,.23,1.21,3.62,3.62,0,0,1-.94,2.41,7.29,7.29,0,0,1-2.4,1.81,7.3,7.3,0,0,1,1.21.3,3.94,3.94,0,0,1,1.1.58,2.92,2.92,0,0,1,.8.93,2.75,2.75,0,0,1,.3,1.33,4.4,4.4,0,0,1-.53,2.16,5.33,5.33,0,0,1-1.43,1.66,6.85,6.85,0,0,1-2.08,1.08,8,8,0,0,1-2.5.39h-3.2c-.34,0-.72,0-1.14,0s-.85.06-1.28.11q0-.12,0-.21a.91.91,0,0,1,0-.18.37.37,0,0,1,.07-.22.33.33,0,0,1,.22-.12q1.38-.17,1.55-1.07Zm-.36,12.5a.59.59,0,0,0,.06.51.75.75,0,0,0,.55.15h.39a9.43,9.43,0,0,0,2-.19,4.5,4.5,0,0,0,1.6-.65,3.16,3.16,0,0,0,1.06-1.24,4.29,4.29,0,0,0,.39-1.94,2.43,2.43,0,0,0-1-2.11,5.05,5.05,0,0,0-3-.73h-.83Zm1.38-7.12a5.08,5.08,0,0,0,3.54-1,3.78,3.78,0,0,0,1.07-2.9,2.06,2.06,0,0,0-.67-1.66,3.64,3.64,0,0,0-2.34-.57h-.46Z" transform="translate(-1.22 -4.33)"/><path class="cls-2" d="M215.57,422.93a2.55,2.55,0,0,0,1.93-.84,5,5,0,0,0,1.12-2.44l1.26-6.08h-.1a11.61,11.61,0,0,1-2.57,3.45,4,4,0,0,1-2.52,1,1.92,1.92,0,0,1-1.22-.34,1.35,1.35,0,0,1-.42-1.11,6.2,6.2,0,0,1,0-.69c0-.27.07-.52.12-.76l1.17-5.65a1.57,1.57,0,0,0,0-.23,2,2,0,0,0,0-.23c0-.19-.08-.29-.24-.29a.91.91,0,0,0-.33.09l-.42.17-.4.17a.73.73,0,0,1-.28.09.21.21,0,0,1-.19-.15,1,1,0,0,1-.1-.31l1-.56c.37-.21.73-.4,1.09-.57l1-.44a1.92,1.92,0,0,1,.6-.18c.31,0,.46.16.46.49a1.77,1.77,0,0,1,0,.41l-1.41,6.71a5.29,5.29,0,0,0-.15,1.09c0,.45.24.68.73.68a2,2,0,0,0,1.17-.44,6,6,0,0,0,1.17-1.14,11.53,11.53,0,0,0,1.06-1.61,17.74,17.74,0,0,0,.88-1.83,13.82,13.82,0,0,0,.6-1.81,6.63,6.63,0,0,0,.22-1.56,3.15,3.15,0,0,0-.07-.68,11,11,0,0,0,2-.34.41.41,0,0,1,.15.29s0,.1,0,.2,0,.19,0,.25l-2.19,11a6.62,6.62,0,0,1-.87,2.27,6.44,6.44,0,0,1-1.39,1.59,5.38,5.38,0,0,1-1.66.93,5.22,5.22,0,0,1-1.69.3,6.53,6.53,0,0,1-2.74-.49,9.3,9.3,0,0,0,.29-1,9.42,9.42,0,0,0,.17-1l.41-.15a3.35,3.35,0,0,0,1,1.2A2.3,2.3,0,0,0,215.57,422.93Z" transform="translate(-1.22 -4.33)"/><path class="cls-2" d="M231,416a1.36,1.36,0,0,0-.17.56.44.44,0,0,0,.33.42,4.53,4.53,0,0,0,1,.23c.29,0,.44.17.44.36a2.14,2.14,0,0,1,0,.36l-1.35-.11q-.62,0-1.3,0l-1,0a10.64,10.64,0,0,0-1.15.12c0-.07,0-.13,0-.19a.76.76,0,0,1,0-.17c0-.21.14-.34.41-.39a2.08,2.08,0,0,0,1.62-.92L237.5,402a.42.42,0,0,1,.36-.24l.15,0,.12,0,2.59,14.37a.9.9,0,0,0,.44.65,2.67,2.67,0,0,0,.94.31.8.8,0,0,1,.41.15.32.32,0,0,1,.1.24,2.12,2.12,0,0,1,0,.36l-1.3-.08c-.41,0-.83,0-1.27,0a27.38,27.38,0,0,0-2.84.15,1,1,0,0,1-.07-.36c0-.21.15-.34.46-.39a2.52,2.52,0,0,0,.68-.22.56.56,0,0,0,.36-.53v-.15a1.21,1.21,0,0,0,0-.22l-.73-4h-4.65Zm6.64-4.9-.94-5.65-3.05,5.65Z" transform="translate(-1.22 -4.33)"/><path class="cls-2" d="M251.85,410.45a5.32,5.32,0,0,0,.15-1.09.61.61,0,0,0-.68-.7,1.62,1.62,0,0,0-.89.4,8.14,8.14,0,0,0-1.12,1,16.53,16.53,0,0,0-1.15,1.44,14.69,14.69,0,0,0-1,1.62q-.22.41-.42.91c-.14.33-.26.67-.36,1a8.67,8.67,0,0,0-.24,1,5.68,5.68,0,0,0-.08.94,2.84,2.84,0,0,0,.07.66,12.18,12.18,0,0,0-1.92.36.34.34,0,0,1-.19-.29,1.86,1.86,0,0,1,0-.21,1.93,1.93,0,0,1,0-.25q.56-2.81.87-4.43t.47-2.46q.16-.83.2-1.09t0-.3c0-.19-.07-.29-.19-.29a.79.79,0,0,0-.29.09l-.4.17-.4.17a.84.84,0,0,1-.29.09.24.24,0,0,1-.21-.15,1.18,1.18,0,0,1-.13-.34c.29-.18.63-.37,1-.57s.78-.39,1.15-.56l1-.42a2,2,0,0,1,.53-.17.48.48,0,0,1,.29.09.32.32,0,0,1,.12.28,1.77,1.77,0,0,1,0,.18c0,.07,0,.15,0,.23L246.9,412h.1q.63-1.07,1.31-2a12.51,12.51,0,0,1,1.37-1.59,6.27,6.27,0,0,1,1.39-1,3,3,0,0,1,1.43-.38,1.61,1.61,0,0,1,1.08.34,1.39,1.39,0,0,1,.4,1.11,5.22,5.22,0,0,1,0,.68c0,.26-.07.52-.12.77l-1.24,5.82a3,3,0,0,0-.07.46c0,.21.1.31.29.31a.85.85,0,0,0,.34-.08,3.15,3.15,0,0,0,.37-.19l.33-.2a.51.51,0,0,1,.24-.08c.16,0,.28.16.34.48-.29.21-.59.41-.89.59s-.6.35-.9.5a7.11,7.11,0,0,1-.83.35,2,2,0,0,1-.63.13,1.14,1.14,0,0,1-.5-.11c-.15-.07-.23-.25-.23-.52a1.79,1.79,0,0,1,0-.23c0-.11,0-.2,0-.28Z" transform="translate(-1.22 -4.33)"/><path class="cls-2" d="M262.71,413.74h-.1a12.93,12.93,0,0,1-1.24,2,8.19,8.19,0,0,1-1.25,1.33,4.54,4.54,0,0,1-1.21.74,3.14,3.14,0,0,1-1.13.23,2.16,2.16,0,0,1-.69-.11,1.4,1.4,0,0,1-.58-.37,1.79,1.79,0,0,1-.4-.73,4,4,0,0,1-.15-1.16,9.34,9.34,0,0,1,2.33-6.36,7.39,7.39,0,0,1,2.15-1.68,4.82,4.82,0,0,1,2.15-.58q.77,0,1.49.07a15,15,0,0,1,1.61.27L264,415.8a2.12,2.12,0,0,0,0,.44c0,.21.09.31.27.31a.83.83,0,0,0,.35-.08l.36-.19.34-.2a.61.61,0,0,1,.26-.08c.16,0,.28.16.34.48-.29.21-.6.41-.91.59s-.62.35-.91.5a6.52,6.52,0,0,1-.82.35,2,2,0,0,1-.63.13,1.06,1.06,0,0,1-.48-.11.47.47,0,0,1-.22-.47,2,2,0,0,1,0-.28,2.2,2.2,0,0,1,.07-.33Zm.87-5.5a4.65,4.65,0,0,0-.64-.16,4,4,0,0,0-.67-.06,3.12,3.12,0,0,0-1.75.51,4.4,4.4,0,0,0-1.33,1.43,7.67,7.67,0,0,0-.86,2.18,11.66,11.66,0,0,0-.3,2.74,2.63,2.63,0,0,0,.22,1.25.67.67,0,0,0,.6.37,1.74,1.74,0,0,0,1-.44,5.92,5.92,0,0,0,1.08-1.14,13.86,13.86,0,0,0,1-1.59,14.1,14.1,0,0,0,.84-1.81,14.68,14.68,0,0,0,.56-1.78A6.58,6.58,0,0,0,263.58,408.24Z" transform="translate(-1.22 -4.33)"/><path class="cls-2" d="M278.8,402.93l-2.47,13a.64.64,0,0,0,.26.76,3.76,3.76,0,0,0,1.33.35.67.67,0,0,1,.24.11.38.38,0,0,1,.12.33,1.8,1.8,0,0,1,0,.18c0,.07,0,.15,0,.23-.48,0-1-.08-1.55-.11s-1.08,0-1.6,0l-1.32,0c-.54,0-1,.06-1.46.11,0-.08,0-.15,0-.22a1.46,1.46,0,0,1,0-.17.37.37,0,0,1,.34-.39,3.65,3.65,0,0,0,1.1-.34,1,1,0,0,0,.5-.68l2.4-12.46a.61.61,0,0,0-.25-.7,2.3,2.3,0,0,0-.91-.29c-.28,0-.41-.16-.41-.39a1.68,1.68,0,0,1,.08-.41c.48,0,1,.08,1.46.11s.95,0,1.37,0h2.13a6.8,6.8,0,0,1,2.08.29,4.63,4.63,0,0,1,1.51.8,3.38,3.38,0,0,1,.93,1.2,3.6,3.6,0,0,1,.31,1.49,5,5,0,0,1-.41,2,4.62,4.62,0,0,1-1.2,1.63,5.88,5.88,0,0,1-1.92,1.09,7.56,7.56,0,0,1-2.53.4h-1a1.53,1.53,0,0,1,.26-.72.65.65,0,0,1,.54-.23,4.26,4.26,0,0,0,2.92-1,4.1,4.1,0,0,0,1-3.1,3.84,3.84,0,0,0-.16-1.11,2.53,2.53,0,0,0-.51-.94,2.47,2.47,0,0,0-.91-.66,3.4,3.4,0,0,0-1.35-.24Z" transform="translate(-1.22 -4.33)"/><path class="cls-2" d="M290.94,413.74h-.1a12.93,12.93,0,0,1-1.24,2,8.19,8.19,0,0,1-1.25,1.33,4.54,4.54,0,0,1-1.21.74,3.14,3.14,0,0,1-1.13.23,2.16,2.16,0,0,1-.69-.11,1.4,1.4,0,0,1-.58-.37,1.79,1.79,0,0,1-.4-.73,4,4,0,0,1-.15-1.16,9.34,9.34,0,0,1,2.33-6.36,7.39,7.39,0,0,1,2.15-1.68,4.82,4.82,0,0,1,2.15-.58q.77,0,1.49.07a15,15,0,0,1,1.61.27l-1.67,8.41a2.12,2.12,0,0,0,0,.44c0,.21.09.31.27.31a.83.83,0,0,0,.35-.08l.36-.19.34-.2a.61.61,0,0,1,.26-.08c.16,0,.28.16.34.48-.29.21-.6.41-.91.59s-.62.35-.91.5a6.52,6.52,0,0,1-.82.35,2,2,0,0,1-.63.13,1.06,1.06,0,0,1-.48-.11.47.47,0,0,1-.22-.47,2,2,0,0,1,0-.28,2.2,2.2,0,0,1,.07-.33Zm.87-5.5a4.65,4.65,0,0,0-.64-.16,4,4,0,0,0-.67-.06,3.12,3.12,0,0,0-1.75.51,4.4,4.4,0,0,0-1.33,1.43,7.67,7.67,0,0,0-.86,2.18,11.66,11.66,0,0,0-.3,2.74,2.63,2.63,0,0,0,.22,1.25.67.67,0,0,0,.6.37,1.74,1.74,0,0,0,1-.44,5.92,5.92,0,0,0,1.08-1.14,13.86,13.86,0,0,0,1-1.59,14.1,14.1,0,0,0,.84-1.81,14.68,14.68,0,0,0,.56-1.78A6.58,6.58,0,0,0,291.81,408.24Z" transform="translate(-1.22 -4.33)"/><path class="cls-2" d="M298.45,414.66a5.89,5.89,0,0,0-.15,1.09.65.65,0,0,0,.23.56,1,1,0,0,0,.59.17,1.92,1.92,0,0,0,1.12-.42,6.29,6.29,0,0,0,1.15-1.13,12.81,12.81,0,0,0,1.09-1.6,15.67,15.67,0,0,0,.91-1.83,13.6,13.6,0,0,0,.62-1.84,6.7,6.7,0,0,0,.23-1.61,3.29,3.29,0,0,0-.07-.65,17.2,17.2,0,0,0,1.91-.36.34.34,0,0,1,.2.29,1.85,1.85,0,0,1,0,.2c0,.11,0,.19,0,.25l-1.65,8.34c0,.29.06.44.31.44a.77.77,0,0,0,.33-.08l.35-.17.33-.17a.59.59,0,0,1,.26-.09c.15,0,.24.15.29.44-.29.21-.6.41-.92.61s-.63.36-.92.51a6.14,6.14,0,0,1-.81.34,2.09,2.09,0,0,1-.59.12,1,1,0,0,1-.46-.11c-.15-.07-.22-.24-.22-.5t0-.22a1.59,1.59,0,0,1,.06-.32l.7-3.34h-.1a11.27,11.27,0,0,1-2.59,3.43,4.15,4.15,0,0,1-2.59,1.05,1.76,1.76,0,0,1-1.21-.39,1.48,1.48,0,0,1-.44-1.16,5.88,5.88,0,0,1,0-.68c0-.26.07-.51.12-.75l1.19-5.57a1.05,1.05,0,0,1,0-.17,1.1,1.1,0,0,0,0-.17q.05-.41-.22-.41a.91.91,0,0,0-.33.09l-.42.17-.4.17a.71.71,0,0,1-.28.09.21.21,0,0,1-.19-.15,1.57,1.57,0,0,1-.12-.31l1-.56c.38-.21.75-.4,1.11-.57l1-.44a2,2,0,0,1,.58-.18c.32,0,.49.14.49.41a1.29,1.29,0,0,1,0,.24l0,.24Z" transform="translate(-1.22 -4.33)"/><path class="cls-2" d="M311.12,402.74a.87.87,0,0,0,0-.24.19.19,0,0,0-.21-.12l-.26,0-.39.07-.37.06-.24,0c-.21,0-.31-.17-.31-.51q1.09-.29,2-.59c.61-.2,1.23-.42,1.84-.67a.64.64,0,0,1,.24.23.59.59,0,0,1,0,.23,1.68,1.68,0,0,1,0,.39l-2.77,14.13c0,.08,0,.17,0,.28a1.38,1.38,0,0,0,0,.2.26.26,0,0,0,.29.29.8.8,0,0,0,.35-.08l.36-.19.33-.2a.51.51,0,0,1,.24-.08c.16,0,.28.16.34.48a9,9,0,0,1-.88.59c-.32.19-.62.35-.91.5a6.77,6.77,0,0,1-.82.35,2,2,0,0,1-.63.13,1.22,1.22,0,0,1-.51-.11c-.16-.07-.24-.25-.24-.52a1.84,1.84,0,0,1,0-.26,1.7,1.7,0,0,1,0-.25l2.28-11.7q.14-.7.22-1.39A10.58,10.58,0,0,0,311.12,402.74Z" transform="translate(-1.22 -4.33)"/><path class="cls-2" d="M320.69,413.74h-.1a13.54,13.54,0,0,1-1.24,2,8,8,0,0,1-1.25,1.33,4.43,4.43,0,0,1-1.21.74,3.11,3.11,0,0,1-1.12.23,2.17,2.17,0,0,1-.69-.11,1.4,1.4,0,0,1-.58-.37,1.89,1.89,0,0,1-.4-.73,4,4,0,0,1-.15-1.16,9.37,9.37,0,0,1,2.33-6.36,7.39,7.39,0,0,1,2.15-1.68,4.79,4.79,0,0,1,2.14-.58,13.53,13.53,0,0,1,3.11.34L322,415.8a2.39,2.39,0,0,0,0,.44c0,.21.09.31.26.31a.8.8,0,0,0,.35-.08l.36-.19.34-.2a.59.59,0,0,1,.26-.08c.16,0,.27.16.34.48q-.44.32-.91.59c-.32.19-.62.35-.91.5a6.77,6.77,0,0,1-.82.35,2,2,0,0,1-.63.13,1.07,1.07,0,0,1-.49-.11.48.48,0,0,1-.22-.47,2,2,0,0,1,0-.28,2.82,2.82,0,0,1,.07-.33Zm.87-5.5a4.52,4.52,0,0,0-.64-.16,3.93,3.93,0,0,0-.67-.06,3.11,3.11,0,0,0-1.74.51,4.41,4.41,0,0,0-1.33,1.43,7.67,7.67,0,0,0-.86,2.18,11.66,11.66,0,0,0-.3,2.74,2.63,2.63,0,0,0,.22,1.25.67.67,0,0,0,.61.37,1.73,1.73,0,0,0,1-.44,5.92,5.92,0,0,0,1.08-1.14,13.86,13.86,0,0,0,1-1.59,15.23,15.23,0,0,0,.84-1.81,14.64,14.64,0,0,0,.55-1.78A6.58,6.58,0,0,0,321.57,408.24Z" transform="translate(-1.22 -4.33)"/><path class="cls-2" d="M338,418.06a9.28,9.28,0,0,1-3.26-.51,5.84,5.84,0,0,1-2.19-1.39,5.32,5.32,0,0,1-1.24-2.06,8,8,0,0,1-.39-2.53,11.19,11.19,0,0,1,.58-3.53,9.72,9.72,0,0,1,1.75-3.16,8.8,8.8,0,0,1,2.92-2.28,9.19,9.19,0,0,1,4.13-.87,13.86,13.86,0,0,1,2.34.19,15.49,15.49,0,0,1,2.17.53c0,.47-.07.93-.07,1.38s0,.65,0,1,0,.65.08,1a.74.74,0,0,1-.44.12c-.31,0-.47-.12-.49-.36a3,3,0,0,0-1.19-2.23,4.7,4.7,0,0,0-2.59-.63,5.86,5.86,0,0,0-2.86.69,6.61,6.61,0,0,0-2.15,1.88,8.62,8.62,0,0,0-1.35,2.77,12,12,0,0,0-.46,3.36,7.38,7.38,0,0,0,.35,2.36,5.38,5.38,0,0,0,1,1.79,4.35,4.35,0,0,0,1.54,1.15,4.92,4.92,0,0,0,2,.41,4.41,4.41,0,0,0,2.6-.68,5.4,5.4,0,0,0,1.66-2.18.59.59,0,0,1,.58-.39.86.86,0,0,1,.3.06.69.69,0,0,1,.21.11,13.21,13.21,0,0,0-.64,1.63c-.19.57-.37,1.22-.57,1.93l-1.14.18-1.21.16L339,418C338.61,418,338.31,418.06,338,418.06Z" transform="translate(-1.22 -4.33)"/><path class="cls-2" d="M352,413.74h-.1a13.54,13.54,0,0,1-1.24,2,8,8,0,0,1-1.25,1.33,4.43,4.43,0,0,1-1.21.74,3.11,3.11,0,0,1-1.12.23,2.17,2.17,0,0,1-.69-.11,1.4,1.4,0,0,1-.58-.37,1.89,1.89,0,0,1-.4-.73,4,4,0,0,1-.15-1.16,9.37,9.37,0,0,1,2.33-6.36,7.39,7.39,0,0,1,2.15-1.68,4.79,4.79,0,0,1,2.14-.58,13.53,13.53,0,0,1,3.11.34l-1.68,8.41a2.39,2.39,0,0,0,0,.44c0,.21.09.31.26.31a.8.8,0,0,0,.35-.08l.36-.19.34-.2a.59.59,0,0,1,.26-.08c.16,0,.27.16.34.48q-.44.32-.91.59c-.32.19-.62.35-.91.5a6.77,6.77,0,0,1-.82.35,2,2,0,0,1-.63.13,1.07,1.07,0,0,1-.49-.11.48.48,0,0,1-.22-.47,2,2,0,0,1,0-.28,2.82,2.82,0,0,1,.07-.33Zm.87-5.5a4.52,4.52,0,0,0-.64-.16,3.93,3.93,0,0,0-.67-.06,3.11,3.11,0,0,0-1.74.51,4.41,4.41,0,0,0-1.33,1.43,7.67,7.67,0,0,0-.86,2.18,11.66,11.66,0,0,0-.3,2.74,2.63,2.63,0,0,0,.22,1.25.67.67,0,0,0,.61.37,1.73,1.73,0,0,0,1-.44,5.92,5.92,0,0,0,1.08-1.14,13.86,13.86,0,0,0,1-1.59,15.23,15.23,0,0,0,.84-1.81,14.64,14.64,0,0,0,.55-1.78A6.58,6.58,0,0,0,352.88,408.24Z" transform="translate(-1.22 -4.33)"/><path class="cls-2" d="M363.59,409.36a1.62,1.62,0,0,0-.88.34,5.13,5.13,0,0,0-1,.92,10.54,10.54,0,0,0-1,1.35,11.39,11.39,0,0,0-.84,1.62,11.6,11.6,0,0,0-.58,1.76,7.26,7.26,0,0,0-.22,1.72,2.84,2.84,0,0,0,.07.66c-.33,0-.65.08-1,.15s-.66.14-1,.22c-.15-.08-.22-.18-.22-.29a1.51,1.51,0,0,1,0-.34,2.62,2.62,0,0,1,.1-.32c0-.08.06-.18.1-.29a4.2,4.2,0,0,0,.1-.48l1.07-5.5c.11-.63.19-1.06.22-1.28s.06-.39.07-.48-.07-.32-.22-.32a.85.85,0,0,0-.28.07l-.39.17-.39.17a.84.84,0,0,1-.28.07.24.24,0,0,1-.21-.15,1.18,1.18,0,0,1-.13-.34c.29-.18.63-.37,1-.57l1.14-.56c.36-.17.68-.31,1-.42a2.11,2.11,0,0,1,.55-.17.48.48,0,0,1,.29.09.32.32,0,0,1,.12.28s0,.09,0,.17,0,.16,0,.24l-.78,3.64h.1a15.15,15.15,0,0,1,2.39-3.37,3.12,3.12,0,0,1,2.12-1,1.09,1.09,0,0,1,.4.07.76.76,0,0,1,.25.15c-.15.37-.27.76-.39,1.16a9.45,9.45,0,0,0-.27,1.36h-.39A.77.77,0,0,0,363.59,409.36Z" transform="translate(-1.22 -4.33)"/><path class="cls-2" d="M372.32,409.36a1.63,1.63,0,0,0-.89.34,5.12,5.12,0,0,0-1,.92,10.54,10.54,0,0,0-1,1.35,12.24,12.24,0,0,0-.84,1.62,11.6,11.6,0,0,0-.58,1.76,7.26,7.26,0,0,0-.22,1.72,3.06,3.06,0,0,0,.07.66c-.32,0-.65.08-1,.15s-.66.14-1,.22c-.15-.08-.22-.18-.22-.29a1.34,1.34,0,0,1,0-.34,2.7,2.7,0,0,1,.1-.32,2.88,2.88,0,0,0,.1-.29,4.06,4.06,0,0,0,.1-.48l1.07-5.5c.11-.63.18-1.06.22-1.28s.05-.39.07-.48-.07-.32-.22-.32a.83.83,0,0,0-.28.07l-.39.17-.39.17a.85.85,0,0,1-.28.07.25.25,0,0,1-.21-.15,1.3,1.3,0,0,1-.13-.34q.44-.27,1-.57l1.14-.56c.37-.17.69-.31,1-.42a2.07,2.07,0,0,1,.55-.17.5.5,0,0,1,.29.09.31.31,0,0,1,.12.28s0,.09,0,.17,0,.16,0,.24l-.78,3.64h.1a15.15,15.15,0,0,1,2.39-3.37,3.13,3.13,0,0,1,2.12-1,1.06,1.06,0,0,1,.4.07.83.83,0,0,1,.26.15q-.22.56-.39,1.16a10,10,0,0,0-.26,1.36H373A.76.76,0,0,0,372.32,409.36Z" transform="translate(-1.22 -4.33)"/><path class="cls-2" d="M380.34,413.74h-.1a13.54,13.54,0,0,1-1.24,2,8,8,0,0,1-1.25,1.33,4.43,4.43,0,0,1-1.21.74,3.11,3.11,0,0,1-1.12.23,2.17,2.17,0,0,1-.69-.11,1.4,1.4,0,0,1-.58-.37,1.89,1.89,0,0,1-.4-.73,4,4,0,0,1-.15-1.16,9.37,9.37,0,0,1,2.33-6.36,7.39,7.39,0,0,1,2.15-1.68,4.79,4.79,0,0,1,2.14-.58,13.53,13.53,0,0,1,3.11.34l-1.68,8.41a2.39,2.39,0,0,0,0,.44c0,.21.09.31.26.31a.8.8,0,0,0,.35-.08l.36-.19.34-.2a.59.59,0,0,1,.26-.08c.16,0,.27.16.34.48q-.44.32-.91.59c-.32.19-.62.35-.91.5a6.77,6.77,0,0,1-.82.35,2,2,0,0,1-.63.13,1.07,1.07,0,0,1-.49-.11.48.48,0,0,1-.22-.47,2,2,0,0,1,0-.28,2.82,2.82,0,0,1,.07-.33Zm.87-5.5a4.52,4.52,0,0,0-.64-.16,3.93,3.93,0,0,0-.67-.06,3.11,3.11,0,0,0-1.74.51,4.41,4.41,0,0,0-1.33,1.43,7.67,7.67,0,0,0-.86,2.18,11.66,11.66,0,0,0-.3,2.74,2.63,2.63,0,0,0,.22,1.25.67.67,0,0,0,.61.37,1.73,1.73,0,0,0,1-.44,5.92,5.92,0,0,0,1.08-1.14,13.86,13.86,0,0,0,1-1.59,15.23,15.23,0,0,0,.84-1.81,14.64,14.64,0,0,0,.55-1.78A6.58,6.58,0,0,0,381.21,408.24Z" transform="translate(-1.22 -4.33)"/><path class="cls-2" d="M393.25,410.45a5.32,5.32,0,0,0,.15-1.09.61.61,0,0,0-.68-.7,1.62,1.62,0,0,0-.89.4,8.14,8.14,0,0,0-1.12,1,16.53,16.53,0,0,0-1.15,1.44,14.69,14.69,0,0,0-1,1.62q-.22.41-.42.91c-.14.33-.26.67-.36,1a8.67,8.67,0,0,0-.24,1,5.68,5.68,0,0,0-.08.94,2.84,2.84,0,0,0,.07.66,12.18,12.18,0,0,0-1.92.36.34.34,0,0,1-.19-.29,1.86,1.86,0,0,1,0-.21,1.93,1.93,0,0,1,0-.25q.56-2.81.87-4.43t.47-2.46q.16-.83.2-1.09t0-.3c0-.19-.07-.29-.19-.29a.79.79,0,0,0-.29.09l-.4.17-.4.17a.84.84,0,0,1-.29.09.24.24,0,0,1-.21-.15,1.18,1.18,0,0,1-.13-.34c.29-.18.63-.37,1-.57s.78-.39,1.15-.56l1-.42a2,2,0,0,1,.53-.17.48.48,0,0,1,.29.09.32.32,0,0,1,.12.28,1.77,1.77,0,0,1,0,.18c0,.07,0,.15,0,.23L388.3,412h.1q.63-1.07,1.31-2a12.51,12.51,0,0,1,1.37-1.59,6.27,6.27,0,0,1,1.39-1,3,3,0,0,1,1.43-.38,1.61,1.61,0,0,1,1.08.34,1.39,1.39,0,0,1,.4,1.11,5.22,5.22,0,0,1,0,.68c0,.26-.07.52-.12.77L394,415.78a3,3,0,0,0-.07.46c0,.21.1.31.29.31a.85.85,0,0,0,.34-.08,3.15,3.15,0,0,0,.37-.19l.33-.2a.51.51,0,0,1,.24-.08c.16,0,.28.16.34.48-.29.21-.59.41-.89.59s-.6.35-.9.5a7.11,7.11,0,0,1-.83.35,2,2,0,0,1-.63.13,1.14,1.14,0,0,1-.5-.11c-.15-.07-.23-.25-.23-.52a1.79,1.79,0,0,1,0-.23c0-.11,0-.2,0-.28Z" transform="translate(-1.22 -4.33)"/><path class="cls-2" d="M398.83,416.21a6.44,6.44,0,0,1,1-.27,5.25,5.25,0,0,1,.9-.07A4.78,4.78,0,0,1,402,416a5,5,0,0,0,1.31.16.77.77,0,0,0,.6-.29,2.91,2.91,0,0,0,.45-.73.85.85,0,0,1,.16-.28.35.35,0,0,1,.33-.11l.44,0q-.22.71-.38,1.42t-.23,1.27l-.2.2a2.61,2.61,0,0,1-.58.17,3.76,3.76,0,0,1-.63,0,5.61,5.61,0,0,1-1.11-.11l-1.09-.23-1.1-.23a5.66,5.66,0,0,0-1.09-.11,3.1,3.1,0,0,0-.81.11,2.08,2.08,0,0,0-.74.37h-.51c-.1-.13-.14-.23-.12-.29a.8.8,0,0,1,.17-.27l7.05-8.24a3.5,3.5,0,0,1-1.58.34,4.09,4.09,0,0,1-.84-.07l-.65-.15-.6-.15a3,3,0,0,0-.69-.07c-.26,0-.49.24-.7.7a1.17,1.17,0,0,1-.16.3.34.34,0,0,1-.37.11l-.39,0a18,18,0,0,0,.53-2.4l.15-.15a3.18,3.18,0,0,1,1-.15,4.88,4.88,0,0,1,1,.11l1,.23,1,.23a4.84,4.84,0,0,0,1,.11,4.25,4.25,0,0,0,1-.12,3.23,3.23,0,0,0,1-.44H406a.52.52,0,0,1,.13.25.46.46,0,0,1-.16.3Z" transform="translate(-1.22 -4.33)"/><path class="cls-2" d="M413.39,413.74h-.1a13.54,13.54,0,0,1-1.24,2,8,8,0,0,1-1.25,1.33,4.43,4.43,0,0,1-1.21.74,3.11,3.11,0,0,1-1.12.23,2.17,2.17,0,0,1-.69-.11,1.4,1.4,0,0,1-.58-.37,1.89,1.89,0,0,1-.4-.73,4,4,0,0,1-.15-1.16,9.37,9.37,0,0,1,2.33-6.36,7.39,7.39,0,0,1,2.15-1.68,4.79,4.79,0,0,1,2.14-.58,13.53,13.53,0,0,1,3.11.34l-1.68,8.41a2.39,2.39,0,0,0,0,.44c0,.21.09.31.26.31a.8.8,0,0,0,.35-.08l.36-.19.34-.2a.59.59,0,0,1,.26-.08c.16,0,.27.16.34.48q-.44.32-.91.59c-.32.19-.62.35-.91.5a6.77,6.77,0,0,1-.82.35,2,2,0,0,1-.63.13,1.07,1.07,0,0,1-.49-.11.48.48,0,0,1-.22-.47,2,2,0,0,1,0-.28,2.82,2.82,0,0,1,.07-.33Zm.87-5.5a4.52,4.52,0,0,0-.64-.16A3.93,3.93,0,0,0,413,408a3.11,3.11,0,0,0-1.74.51,4.41,4.41,0,0,0-1.33,1.43,7.67,7.67,0,0,0-.86,2.18,11.66,11.66,0,0,0-.3,2.74,2.63,2.63,0,0,0,.22,1.25.67.67,0,0,0,.61.37,1.73,1.73,0,0,0,1-.44,5.92,5.92,0,0,0,1.08-1.14,13.86,13.86,0,0,0,1-1.59,15.23,15.23,0,0,0,.84-1.81,14.64,14.64,0,0,0,.55-1.78A6.58,6.58,0,0,0,414.26,408.24Z" transform="translate(-1.22 -4.33)"/><path class="cls-2" d="M187.75,225.92v-1.38h14.87q4.14,0,8.17-.15t8.17-.15a45.06,45.06,0,0,1,8.12.79,26.31,26.31,0,0,1,7.83,2.71,17.06,17.06,0,0,1,5.86,5.17,13.74,13.74,0,0,1,2.31,8.17,12.36,12.36,0,0,1-1.77,6.74,14.53,14.53,0,0,1-4.58,4.58,22.79,22.79,0,0,1-6.25,2.71,39,39,0,0,1-6.79,1.23v.49q4.82.88,8.61,1.77a20.74,20.74,0,0,1,6.55,2.66,12.56,12.56,0,0,1,4.38,4.92,22.28,22.28,0,0,1,2,8.47q.49,6.2.79,9.94a35.41,35.41,0,0,0,.84,5.81,4.88,4.88,0,0,0,1.48,2.76,4.51,4.51,0,0,0,2.71.69,4.73,4.73,0,0,0,3.25-1.13q1.28-1.13,2.26-2.12l1,.89q-1,1-1.92,1.82a9.2,9.2,0,0,1-2.16,1.43,12.52,12.52,0,0,1-3,.94A23.81,23.81,0,0,1,246,296q-5.42,0-8.47-1.72A11.68,11.68,0,0,1,233,290a14.25,14.25,0,0,1-1.82-5.56q-.34-3-.44-5.66-.2-4-.54-7.83a21.93,21.93,0,0,0-1.63-6.74,10.88,10.88,0,0,0-3.84-4.72,12.5,12.5,0,0,0-7.19-1.77h-6.5v35.54h9.06v1.38H187.75v-1.38h9.06V225.92Zm27.37,30.42a17,17,0,0,0,7-1.18,8.71,8.71,0,0,0,3.84-3.2,11.25,11.25,0,0,0,1.63-4.58,39.11,39.11,0,0,0,.34-5.22,40.34,40.34,0,0,0-.59-7.43,13.46,13.46,0,0,0-2-5.12,8.24,8.24,0,0,0-3.79-3,16.43,16.43,0,0,0-6.15-1c-.72,0-1.45,0-2.17.1l-2.16.2v30.42Z" transform="translate(-1.22 -4.33)"/><path class="cls-2" d="M337.59,224.54v16.83H336.3a34.64,34.64,0,0,0-1.67-4.28,21.27,21.27,0,0,0-3.3-5.07,19.24,19.24,0,0,0-5.46-4.28,16.9,16.9,0,0,0-8.17-1.82H302v30.42h5.51a16.21,16.21,0,0,0,6.15-1,11,11,0,0,0,4.18-3,16.05,16.05,0,0,0,2.76-4.63,35.72,35.72,0,0,0,1.77-6.05h1.28v30.62h-1.28a57.18,57.18,0,0,0-1.62-5.51,16.42,16.42,0,0,0-2.51-4.68,11.53,11.53,0,0,0-3.89-3.2,12.59,12.59,0,0,0-5.76-1.18H302v35.54h16.15a20.92,20.92,0,0,0,8.17-1.53,20.28,20.28,0,0,0,6.45-4.28,24.39,24.39,0,0,0,4.68-6.45,35,35,0,0,0,2.85-7.93h1.28v21.56H278.71v-1.38h9.06V225.92h-9.06v-1.38Z" transform="translate(-1.22 -4.33)"/><path class="cls-2" d="M401.57,293.26v1.38H369.18v-1.38h9.06V225.92h-9.06v-1.38h9.06q5,0,10-.15t10-.15a67.14,67.14,0,0,1,9.55.74,33.66,33.66,0,0,1,9.45,2.76,20.05,20.05,0,0,1,7.24,5.61,14.35,14.35,0,0,1,2.9,9.3,14.79,14.79,0,0,1-1.87,7.24,16.83,16.83,0,0,1-5.71,5.91,32,32,0,0,1-9.65,4,56,56,0,0,1-13.68,1.48h-4v32Zm-6-33.37q8.37,0,12.11-3.79t3.74-12.85q0-8.56-3.25-13.09t-11.81-4.53q-1.08,0-2.07.1l-1.77.2v34Z" transform="translate(-1.22 -4.33)"/><line class="cls-3" x1="69.52" y1="322.85" x2="543.26" y2="322.85"/></svg>