<svg id="Capa_1" data-name="Capa 1" xmlns="http://www.w3.org/2000/svg" viewBox="0 0 49.07 64"><defs><style>.cls-1{fill:#010101;}</style></defs><title>nombrecontacto</title><path class="cls-1" d="M32.09,64c-8.49,0-24.53-1.34-24.53-6.4V55.21a9.62,9.62,0,0,1,5-8.45L22.45,41a6.86,6.86,0,0,0,.73-.51H15.33a8.12,8.12,0,0,1-4.62-1,3.32,3.32,0,0,1-1.52-2.07,3.47,3.47,0,0,1,.4-2.62c1.8-3,6-10.73,6.58-18.85A20.25,20.25,0,0,1,17.75,9c1.83-4.06,5.74-8.92,14-9C45.82.12,46.29,14.38,46.29,14.52,46.46,23,51.71,31.4,54,34.6a3.43,3.43,0,0,1,.49,2.92,3.39,3.39,0,0,1-1.93,2.21,13.76,13.76,0,0,1-5.9.8H38.44a3.45,3.45,0,0,0,1.1,1.19l11.71,5.07a9.59,9.59,0,0,1,5.37,8.63V57.6C56.63,62.66,40.58,64,32.09,64ZM15.27,38.4h8.48A1.94,1.94,0,0,1,25,41.86a11.41,11.41,0,0,1-1.45,1l-9.88,5.72a7.49,7.49,0,0,0-3.93,6.59V57.6c0,1.45,7.91,4.27,22.4,4.27S54.49,59,54.49,57.6V55.42a7.45,7.45,0,0,0-4.14-6.7L38.64,43.65a4.89,4.89,0,0,1-2.07-2.25,2.08,2.08,0,0,1,1.87-3h8.28a11.91,11.91,0,0,0,5-.63,1.27,1.27,0,0,0,.72-.83,1.3,1.3,0,0,0-.19-1.11c-2.36-3.37-7.88-12.17-8.06-21.26,0-.5-.45-12.34-12.42-12.44-7.1.06-10.47,4.24-12,7.73a18.17,18.17,0,0,0-1.41,6.32c-.57,8.59-5,16.72-6.88,19.82a1.33,1.33,0,0,0-.15,1,1.19,1.19,0,0,0,.55.75,6.06,6.06,0,0,0,3.34.66Z" transform="translate(-7.56)"/></svg>