<svg id="Capa_1" data-name="Capa 1" xmlns="http://www.w3.org/2000/svg" viewBox="0 0 64 48"><defs><style>.cls-1{fill:#ffffff;}</style></defs><title>recamaras</title><path class="cls-1" d="M62.67,42.67h-52V17.33A1.33,1.33,0,0,0,9.33,16h-8A1.33,1.33,0,0,0,0,17.33V62.67A1.33,1.33,0,0,0,1.33,64h8a1.33,1.33,0,0,0,1.33-1.33V53.33H53.33v9.33A1.33,1.33,0,0,0,54.67,64h8A1.33,1.33,0,0,0,64,62.67V44A1.33,1.33,0,0,0,62.67,42.67Z" transform="translate(0 -16)"/><circle class="cls-1" cx="21.33" cy="16" r="8"/><path class="cls-1" d="M33.33,40H62.67A1.33,1.33,0,0,0,64,38.67,14.68,14.68,0,0,0,49.33,24h-16A1.33,1.33,0,0,0,32,25.33V38.67A1.33,1.33,0,0,0,33.33,40Z" transform="translate(0 -16)"/></svg>