<svg id="Capa_1" data-name="Capa 1" xmlns="http://www.w3.org/2000/svg" viewBox="0 0 58.67 64"><defs><style>.cls-1{fill:#010101;}</style></defs><title>telefonocontacto</title><path class="cls-1" d="M37.87,33.06a1.07,1.07,0,0,0-1.07,1.07V49.07H4.8V8.53h32V23.46a1.07,1.07,0,0,0,2.13,0V4.7A4.7,4.7,0,0,0,34.23,0H7.37a4.7,4.7,0,0,0-4.7,4.7V59.3A4.7,4.7,0,0,0,7.37,64H34.23a4.7,4.7,0,0,0,4.7-4.7V34.13A1.06,1.06,0,0,0,37.87,33.06ZM7.37,2.13H34.23A2.57,2.57,0,0,1,36.8,4.7V6.4H4.8V4.7A2.57,2.57,0,0,1,7.37,2.13ZM34.23,61.87H7.37A2.57,2.57,0,0,1,4.8,59.3V51.2h32v8.1A2.57,2.57,0,0,1,34.23,61.87Z" transform="translate(-2.67)"/><path class="cls-1" d="M20.8,52.27a4.27,4.27,0,1,0,4.27,4.27A4.27,4.27,0,0,0,20.8,52.27Zm0,6.4a2.13,2.13,0,1,1,2.13-2.13A2.14,2.14,0,0,1,20.8,58.67Z" transform="translate(-2.67)"/><path class="cls-1" d="M16.53,5.33H20.8a1.07,1.07,0,0,0,0-2.13H16.53a1.07,1.07,0,1,0,0,2.13Z" transform="translate(-2.67)"/><path class="cls-1" d="M24,5.33h1.07a1.07,1.07,0,1,0,0-2.13H24a1.07,1.07,0,1,0,0,2.13Z" transform="translate(-2.67)"/><path class="cls-1" d="M61.25,29.21a1.07,1.07,0,0,0,0-.81A1.09,1.09,0,0,0,61,28l-12.8-12.8a1.07,1.07,0,0,0-1.51,1.51l11,11h-38a1.07,1.07,0,1,0,0,2.13h38l-11,11a1.07,1.07,0,1,0,1.51,1.51L61,29.56A1.07,1.07,0,0,0,61.25,29.21Z" transform="translate(-2.67)"/></svg>