<svg id="Capa_1" data-name="Capa 1" xmlns="http://www.w3.org/2000/svg" viewBox="0 0 63.94 59.3"><defs><style>.cls-1{fill:#fff;}</style></defs><title>tipo</title><path class="cls-1" d="M33.83,51.69h-13A.88.88,0,0,1,20,50.8V37.37a.88.88,0,0,1,.88-.88h13a.88.88,0,0,1,.88.88V50.8A.88.88,0,0,1,33.83,51.69ZM21.75,49.92h11.2V38.25H21.75Z" transform="translate(-0.03 -2.35)"/><path class="cls-1" d="M40.78,61.65H13.91A5.52,5.52,0,0,1,8.4,56.13V34.06L.9,34a.88.88,0,0,1-.48-1.62S5,29.27,10.24,25.8V17.66a.88.88,0,0,1,.88-.88h7.45a.88.88,0,0,1,.88.88v2.11c7.11-4.58,7.5-4.58,7.88-4.58s1,0,13.2,8c.23.15,1.21,1.27.95,1.68a.88.88,0,0,1-1.23.25C30.62,18.82,28,17.33,27.35,17c-.54.26-2.34,1.27-8.29,5.12a.88.88,0,0,1-1.37-.74V18.54H12v7.73a.88.88,0,0,1-.4.74C8.54,29,5.68,31,3.77,32.23l5.52.07a.88.88,0,0,1,.87.88V56.13a3.75,3.75,0,0,0,3.75,3.75H40.78a3.75,3.75,0,0,0,3.75-3.75V33.18a.88.88,0,0,1,.87-.88l5.52-.07-4.19-2.79a.88.88,0,1,1,1-1.47c3.77,2.51,6.56,4.38,6.56,4.38A.88.88,0,0,1,53.79,34l-7.49.09V56.13A5.52,5.52,0,0,1,40.78,61.65Z" transform="translate(-0.03 -2.35)"/><path class="cls-1" d="M50.34,29.61H36.92a.88.88,0,0,1-.06-1.77c.65,0,2.64-.4,3.15-1.36a2,2,0,0,0-.34-1.88c-.1-.17-.22-.35-.36-.55a6,6,0,0,1-.52-.84,13.63,13.63,0,1,1,11.55,6.39Zm-.5-1.78h.5a11.87,11.87,0,1,0-10-5.52l.06.11a4,4,0,0,0,.38.61c.17.24.32.46.45.68a3.58,3.58,0,0,1,.37,3.6,3,3,0,0,1-.36.53h8.62Z" transform="translate(-0.03 -2.35)"/><path class="cls-1" d="M49.8,23.91V21.81a6,6,0,0,1-3.17-.91l.5-1.39a5.52,5.52,0,0,0,3,.89c1.47,0,2.47-.85,2.47-2s-.81-1.84-2.34-2.47c-2.11-.83-3.42-1.78-3.42-3.58A3.4,3.4,0,0,1,49.95,9V6.9h1.28v2a5.52,5.52,0,0,1,2.69.73L53.41,11a5,5,0,0,0-2.61-.7c-1.59,0-2.2,1-2.2,1.78,0,1.08.77,1.62,2.57,2.36,2.13.87,3.21,1.95,3.21,3.79a3.6,3.6,0,0,1-3.27,3.52v2.15Z" transform="translate(-0.03 -2.35)"/></svg>