<?xml version="1.0" encoding="utf-8"?>
<!-- Generator: Adobe Illustrator 21.1.0, SVG Export Plug-In . SVG Version: 6.00 Build 0)  -->
<svg version="1.1" id="Layer_1" xmlns="http://www.w3.org/2000/svg" xmlns:xlink="http://www.w3.org/1999/xlink" x="0px" y="0px"
	 width="154.4px" height="106.5px" viewBox="0 0 154.4 106.5" style="enable-background:new 0 0 154.4 106.5;" xml:space="preserve"
	>
<style type="text/css">
	.st0{fill:#231F20;}
</style>
<path id="Gafas" class="st0" d="M147.4,41.5c-0.5-1.7-2.1-2.2-3.4-1.8c-0.5-0.3-1.2-0.4-1.9-0.2c-0.2,0.1-0.3,0.1-0.5,0.2
	c-0.2-0.2-0.4-0.3-0.6-0.4c-13-6.6-26.7-13.4-40.7-17.7c-4.9-1.5-10.7-1.9-14.8,1.7c-3.5,3-4.1,7.5-2.1,11.5
	c1.6,3.2,6.4,0.4,4.8-2.8c-2.3-4.6,3.4-6.1,6.3-6c2.5,0.1,5,1.1,7.3,2c4.3,1.6,8.6,3.3,12.9,5.1c6.5,2.8,13,5.7,19.3,8.9
	c-7.4,2.2-14.9,4.4-22.3,6.6c-2.4,0.7-2.4,3.5-1,4.8c0,1.5,0,3.3,0.1,5.2c-0.3,0.1-0.7,0.2-1,0.4c-2.4,1.5-4.9,2.4-7.7,2.6
	c-0.2-1.4-0.5-2.7-0.8-3.8c-0.2-0.9-0.8-1.5-1.5-1.8c0.7-1.7,0-4-2.4-3.7c-12.1,1.5-24,3.6-35.9,6.4c-0.9,0.2-1.5,0.8-1.8,1.5
	c-7.1-2.8-14.2-5.5-21.3-8.1c-6.8-2.5-14-6-21.2-6.8C5.9,43.8,2.4,54.4,7.2,63.1c1.7,3.1,6.5,0.3,4.8-2.8c-1.4-2.5-3.2-6.9,0.1-9.1
	c1.8-1.2,4.6-0.6,6.6-0.2c4.4,1,8.8,2.9,13.1,4.4c9.3,3.3,18.5,6.8,27.7,10.4c-0.5,6-0.4,12.7,4.4,17.2c4.9,4.5,11.9,3.1,17.6,1.4
	c4.3-1.3,8.6-2.7,12.9-4.2c2.1-0.7,4.2-1.2,5.6-2.9c2.1-2.6,2.7-6.5,2.5-10.4c3.1-0.3,6.1-1.2,8.8-2.7c0.5,2.4,1.4,4.6,3,6.1
	c4.5,4.4,12.3,1.9,17.3,0c5.1-2,13.4-3.9,16-9.2C150.5,55.4,149.1,47.3,147.4,41.5z M95.5,73.6c-2.2,2.5-9.3,3.6-12.6,4.6
	c-4.7,1.5-10.6,3.9-15.1,0.9c-4.2-2.8-3.1-10.3-2.7-14.3c0.1-0.5,0-1-0.2-1.3c10.2-2.3,20.5-4.2,30.8-5.5c-0.1,0.4,0,0.8,0.1,1.2
	C96.7,62.7,98.2,70.4,95.5,73.6z M143.2,57c-1.2,4.1-5.6,4.9-9.2,6.4c-2.6,1.1-10.4,5.4-13.5,3.9c-4.9-2.3-4.4-9.8-4.5-14.4
	c8.8-2.6,17.7-5.2,26.5-7.8C143.6,48.9,144.3,53.3,143.2,57z"/>
</svg>
