<?xml version="1.0" encoding="utf-8"?>
<!-- Generator: Adobe Illustrator 21.1.0, SVG Export Plug-In . SVG Version: 6.00 Build 0)  -->
<svg version="1.1" id="Layer_1" xmlns="http://www.w3.org/2000/svg" xmlns:xlink="http://www.w3.org/1999/xlink" x="0px" y="0px"
	 width="154.4px" height="106.5px" viewBox="0 0 154.4 106.5" style="enable-background:new 0 0 154.4 106.5;" xml:space="preserve"
	>
<style type="text/css">
	.st0{fill:#231F20;}
</style>
<g id="Ver">
	<path class="st0" d="M79.6,49.3c-0.9,0.2-1.8,0.4-2.7,0.7c-0.8-1.7-1.6-3.5-2.3-5.2c-0.6-1.2-2.3-1.5-3.4-0.9
		c-1.3,0.7-1.5,2.2-0.9,3.4c1,2.2,2,4.5,3,6.7c0.2,0.5,0.7,0.9,1.2,1c0.8,0.6,1.8,0.6,2.8,0.2c1-0.5,2.4-0.9,3.7-1.1
		c1.3-0.3,2.1-1.8,1.7-3.1C82.3,49.7,80.9,49.1,79.6,49.3z"/>
	<path class="st0" d="M124.3,5.7c-2.9-3-7-2.5-10.2-0.4c-4.9,3.2-9,8.1-13.3,12.1c-0.5,0.4-0.7,0.9-0.8,1.4c-0.4,0.1-0.7,0.3-1,0.7
		c-4.9,5.4-10,10.5-15.4,15.3c-0.3,0.3-0.5,0.6-0.7,0.9c-4.7-1.4-10-1.4-14.4-0.7c-1.6,0.2-2,1.5-1.7,2.7
		c-6.5,5.1-11.3,13.7-9.4,21.9c0.2,0.8,0.5,1.6,0.8,2.3c-8.5,9.9-17.8,19-28,27.3c-0.5,0.4-0.8,0.9-0.8,1.4
		c-2.3,2.5-2.5,6.4-0.3,9.2c2.6,3.4,7.5,3.6,11.2,2.1c5.6-2.3,10-8.2,14.2-12.3c5.6-5.5,11.1-11,16.7-16.5c0.7-0.6,0.8-1.4,0.7-2.1
		c3.8,0.7,7.6,0.6,10.7-0.4c9-3,14-13,12.5-22.2c0.1-0.1,0.2-0.1,0.2-0.2c5.5-5.6,11.2-11,17-16.4c0.6-0.6,0.8-1.3,0.8-1.9
		c0.3-0.1,0.5-0.3,0.7-0.5C119.5,24.5,132.2,13.9,124.3,5.7z M105.5,31.4c-1.8-2-3.6-3.9-5.5-5.7c0.8-0.8,1.5-1.6,2.3-2.5
		c1.9,1.9,3.8,3.9,5.8,5.8C107.2,29.8,106.4,30.6,105.5,31.4z M51.6,85.4c-2.6,2.5-5.1,5.1-7.7,7.6c-1.4,1.4-2.8,2.8-4.5,3.8
		c-0.7,0.3-1.4,0.6-2.1,0.9c-3,0.9-4.3-0.4-3.9-4c0.4-0.4,0.7-0.8,0.8-1.3c9.8-8,18.9-16.8,27.1-26.4c1.7,1.6,3.8,2.8,6.1,3.7
		C62.2,75,56.9,80.2,51.6,85.4z M79.8,66.3c-6.6,1.5-17.5-2.3-17.6-10.2C62,49.2,66.9,43,72.6,39.9c0.2-0.1,0.4-0.2,0.5-0.4
		c7.4-0.3,16.4,2.2,17.2,10.5C91,57.2,87,64.6,79.8,66.3z M93.3,43.2c-1.3-2.3-3.3-4.1-5.6-5.4c3-2.7,5.9-5.6,8.8-8.4
		c1.9,1.8,3.7,3.6,5.4,5.5C99,37.6,96.2,40.4,93.3,43.2z M111.3,25.2c-1.9-1.8-3.7-3.7-5.5-5.5c1.8-1.7,3.7-3.4,5.5-5.1
		c1.2-1.1,2.3-2.2,3.5-3.2c1.9-1.7,3.1-3.2,5.4-1.8C125.4,12.9,115.2,21.7,111.3,25.2z"/>
	<path class="st0" d="M59.1,71.1c-3,0-3,5,0,5S62.1,71.1,59.1,71.1z"/>
	<path class="st0" d="M52.1,78c-3,0-3,5,0,5S55.1,78,52.1,78z"/>
</g>
</svg>
